<mxfile host="Electron" agent="Mozilla/5.0 (Windows NT 10.0; Win64; x64) AppleWebKit/537.36 (KHTML, like Gecko) draw.io/26.2.2 Chrome/134.0.6998.178 Electron/35.1.2 Safari/537.36" version="26.2.2">
  <diagram name="Page-1" id="46Vid7gsRa8n187h83uz">
    <mxGraphModel dx="1444" dy="1026" grid="0" gridSize="10" guides="1" tooltips="1" connect="1" arrows="1" fold="1" page="0" pageScale="1" pageWidth="1920" pageHeight="1200" math="0" shadow="0">
      <root>
        <mxCell id="0" />
        <mxCell id="1" parent="0" />
        <mxCell id="X2y7TpnEj3RSz1fnKNXi-3" value="" style="rounded=1;whiteSpace=wrap;html=1;fontFamily=Architects Daughter;fontSource=https%3A%2F%2Ffonts.googleapis.com%2Fcss%3Ffamily%3DArchitects%2BDaughter;gradientColor=none;labelBackgroundColor=none;glass=0;shadow=1;dashed=1;" parent="1" vertex="1">
          <mxGeometry x="-330.5" y="-30" width="230" height="500" as="geometry" />
        </mxCell>
        <mxCell id="X2y7TpnEj3RSz1fnKNXi-5" value="" style="image;aspect=fixed;html=1;points=[];align=center;fontSize=12;image=img/lib/azure2/general/Folder_Blank.svg;fontFamily=Architects Daughter;fontSource=https%3A%2F%2Ffonts.googleapis.com%2Fcss%3Ffamily%3DArchitects%2BDaughter;" parent="1" vertex="1">
          <mxGeometry x="-245.5" y="90" width="65.5" height="53.16" as="geometry" />
        </mxCell>
        <mxCell id="X2y7TpnEj3RSz1fnKNXi-6" value="" style="image;aspect=fixed;html=1;points=[];align=center;fontSize=12;image=img/lib/azure2/general/Folder_Blank.svg;fontFamily=Architects Daughter;fontSource=https%3A%2F%2Ffonts.googleapis.com%2Fcss%3Ffamily%3DArchitects%2BDaughter;" parent="1" vertex="1">
          <mxGeometry x="-247.25" y="300" width="69" height="56.00000000000001" as="geometry" />
        </mxCell>
        <mxCell id="X2y7TpnEj3RSz1fnKNXi-7" value="CRM" style="text;html=1;align=center;verticalAlign=middle;whiteSpace=wrap;rounded=0;fontFamily=Architects Daughter;fontSource=https%3A%2F%2Ffonts.googleapis.com%2Fcss%3Ffamily%3DArchitects%2BDaughter;fontStyle=1;fontSize=19;" parent="1" vertex="1">
          <mxGeometry x="-245.5" y="160" width="60" height="30" as="geometry" />
        </mxCell>
        <mxCell id="X2y7TpnEj3RSz1fnKNXi-8" value="ERP" style="text;html=1;align=center;verticalAlign=middle;whiteSpace=wrap;rounded=0;fontFamily=Architects Daughter;fontSource=https%3A%2F%2Ffonts.googleapis.com%2Fcss%3Ffamily%3DArchitects%2BDaughter;fontStyle=1;fontSize=19;" parent="1" vertex="1">
          <mxGeometry x="-245.5" y="370" width="60" height="30" as="geometry" />
        </mxCell>
        <mxCell id="X2y7TpnEj3RSz1fnKNXi-14" value="" style="rounded=1;whiteSpace=wrap;html=1;fontFamily=Architects Daughter;fontSource=https%3A%2F%2Ffonts.googleapis.com%2Fcss%3Ffamily%3DArchitects%2BDaughter;gradientColor=none;labelBackgroundColor=none;glass=0;shadow=1;dashed=1;dashPattern=12 12;" parent="1" vertex="1">
          <mxGeometry y="-40" width="230" height="510" as="geometry" />
        </mxCell>
        <mxCell id="X2y7TpnEj3RSz1fnKNXi-16" value="&lt;div&gt;&lt;b&gt;crm_cust_info&lt;/b&gt;&lt;/div&gt;" style="rounded=1;whiteSpace=wrap;html=1;fontFamily=Architects Daughter;fontSource=https%3A%2F%2Ffonts.googleapis.com%2Fcss%3Ffamily%3DArchitects%2BDaughter;shadow=1;fillColor=#ffe6cc;strokeColor=#d79b00;" parent="1" vertex="1">
          <mxGeometry x="50" y="70" width="120" height="60" as="geometry" />
        </mxCell>
        <mxCell id="X2y7TpnEj3RSz1fnKNXi-17" value="&lt;b&gt;&lt;font style=&quot;font-size: 16px;&quot;&gt;Bronze Layer&lt;/font&gt;&lt;/b&gt;" style="rounded=1;whiteSpace=wrap;html=1;fontFamily=Architects Daughter;fontSource=https%3A%2F%2Ffonts.googleapis.com%2Fcss%3Ffamily%3DArchitects%2BDaughter;" parent="1" vertex="1">
          <mxGeometry x="50" y="-100" width="120" height="60" as="geometry" />
        </mxCell>
        <mxCell id="X2y7TpnEj3RSz1fnKNXi-18" value="&lt;b&gt;crm_sales_Details&lt;/b&gt;" style="rounded=1;whiteSpace=wrap;html=1;fontFamily=Architects Daughter;fontSource=https%3A%2F%2Ffonts.googleapis.com%2Fcss%3Ffamily%3DArchitects%2BDaughter;glass=0;shadow=1;strokeColor=#d79b00;fillColor=#ffe6cc;" parent="1" vertex="1">
          <mxGeometry x="55" y="-10" width="120" height="60" as="geometry" />
        </mxCell>
        <mxCell id="X2y7TpnEj3RSz1fnKNXi-19" value="&lt;b&gt;crm_prd_info&lt;/b&gt;" style="rounded=1;whiteSpace=wrap;html=1;fontFamily=Architects Daughter;fontSource=https%3A%2F%2Ffonts.googleapis.com%2Fcss%3Ffamily%3DArchitects%2BDaughter;shadow=1;fillColor=#ffe6cc;strokeColor=#d79b00;" parent="1" vertex="1">
          <mxGeometry x="55" y="145" width="120" height="60" as="geometry" />
        </mxCell>
        <mxCell id="X2y7TpnEj3RSz1fnKNXi-20" value="&lt;b&gt;srp_cust_az12&lt;/b&gt;" style="rounded=1;whiteSpace=wrap;html=1;fontFamily=Architects Daughter;fontSource=https%3A%2F%2Ffonts.googleapis.com%2Fcss%3Ffamily%3DArchitects%2BDaughter;shadow=1;fillColor=#dae8fc;strokeColor=#6c8ebf;" parent="1" vertex="1">
          <mxGeometry x="50" y="220" width="120" height="60" as="geometry" />
        </mxCell>
        <mxCell id="X2y7TpnEj3RSz1fnKNXi-21" value="&lt;b&gt;erp_loc_a101&lt;/b&gt;" style="rounded=1;whiteSpace=wrap;html=1;fontFamily=Architects Daughter;fontSource=https%3A%2F%2Ffonts.googleapis.com%2Fcss%3Ffamily%3DArchitects%2BDaughter;shadow=1;fillColor=#dae8fc;strokeColor=#6c8ebf;" parent="1" vertex="1">
          <mxGeometry x="50" y="296" width="120" height="60" as="geometry" />
        </mxCell>
        <mxCell id="X2y7TpnEj3RSz1fnKNXi-22" value="&lt;b&gt;erp_px_cat_g1v2&lt;/b&gt;" style="rounded=1;whiteSpace=wrap;html=1;fontFamily=Architects Daughter;fontSource=https%3A%2F%2Ffonts.googleapis.com%2Fcss%3Ffamily%3DArchitects%2BDaughter;shadow=1;fillColor=#dae8fc;strokeColor=#6c8ebf;" parent="1" vertex="1">
          <mxGeometry x="50" y="380" width="120" height="60" as="geometry" />
        </mxCell>
        <mxCell id="X2y7TpnEj3RSz1fnKNXi-24" style="edgeStyle=none;curved=1;rounded=0;orthogonalLoop=1;jettySize=auto;html=1;entryX=0;entryY=0.29;entryDx=0;entryDy=0;entryPerimeter=0;fontFamily=Architects Daughter;fontSource=https%3A%2F%2Ffonts.googleapis.com%2Fcss%3Ffamily%3DArchitects%2BDaughter;fontSize=16;startSize=14;endArrow=open;endSize=14;sourcePerimeterSpacing=8;targetPerimeterSpacing=8;" parent="1" source="X2y7TpnEj3RSz1fnKNXi-5" target="X2y7TpnEj3RSz1fnKNXi-14" edge="1">
          <mxGeometry relative="1" as="geometry">
            <Array as="points">
              <mxPoint x="-80" y="120" />
            </Array>
          </mxGeometry>
        </mxCell>
        <mxCell id="X2y7TpnEj3RSz1fnKNXi-25" value="" style="strokeWidth=2;html=1;shape=mxgraph.flowchart.annotation_1;align=left;pointerEvents=1;fontFamily=Architects Daughter;fontSource=https%3A%2F%2Ffonts.googleapis.com%2Fcss%3Ffamily%3DArchitects%2BDaughter;" parent="1" vertex="1">
          <mxGeometry x="-50" y="20" width="50" height="170" as="geometry" />
        </mxCell>
        <mxCell id="X2y7TpnEj3RSz1fnKNXi-29" style="edgeStyle=none;curved=1;rounded=0;orthogonalLoop=1;jettySize=auto;html=1;entryX=1.04;entryY=0.427;entryDx=0;entryDy=0;entryPerimeter=0;fontFamily=Architects Daughter;fontSource=https%3A%2F%2Ffonts.googleapis.com%2Fcss%3Ffamily%3DArchitects%2BDaughter;fontSize=16;startSize=14;endArrow=open;endSize=14;sourcePerimeterSpacing=8;targetPerimeterSpacing=8;" parent="1" edge="1">
          <mxGeometry relative="1" as="geometry">
            <mxPoint x="-172" y="340.05" as="sourcePoint" />
            <mxPoint y="340.00499999999994" as="targetPoint" />
          </mxGeometry>
        </mxCell>
        <mxCell id="X2y7TpnEj3RSz1fnKNXi-31" value="" style="strokeWidth=2;html=1;shape=mxgraph.flowchart.annotation_1;align=left;pointerEvents=1;fontFamily=Architects Daughter;fontSource=https%3A%2F%2Ffonts.googleapis.com%2Fcss%3Ffamily%3DArchitects%2BDaughter;" parent="1" vertex="1">
          <mxGeometry x="-50" y="245.5" width="50" height="165" as="geometry" />
        </mxCell>
        <mxCell id="XVUIvvw5tuOI8ro835sy-1" value="" style="rounded=1;whiteSpace=wrap;html=1;fontFamily=Architects Daughter;fontSource=https%3A%2F%2Ffonts.googleapis.com%2Fcss%3Ffamily%3DArchitects%2BDaughter;gradientColor=none;labelBackgroundColor=none;glass=0;shadow=1;dashed=1;dashPattern=12 12;" parent="1" vertex="1">
          <mxGeometry x="340" y="-40" width="230" height="510" as="geometry" />
        </mxCell>
        <mxCell id="XVUIvvw5tuOI8ro835sy-2" value="&lt;div&gt;&lt;b&gt;crm_cust_info&lt;/b&gt;&lt;/div&gt;" style="rounded=1;whiteSpace=wrap;html=1;fontFamily=Architects Daughter;fontSource=https%3A%2F%2Ffonts.googleapis.com%2Fcss%3Ffamily%3DArchitects%2BDaughter;shadow=1;fillColor=#e1d5e7;strokeColor=#9673a6;" parent="1" vertex="1">
          <mxGeometry x="390" y="70" width="120" height="60" as="geometry" />
        </mxCell>
        <mxCell id="XVUIvvw5tuOI8ro835sy-3" value="&lt;b&gt;&lt;font style=&quot;font-size: 16px;&quot;&gt;silver Layer&lt;/font&gt;&lt;/b&gt;" style="rounded=1;whiteSpace=wrap;html=1;fontFamily=Architects Daughter;fontSource=https%3A%2F%2Ffonts.googleapis.com%2Fcss%3Ffamily%3DArchitects%2BDaughter;fillColor=#e1d5e7;strokeColor=#9673a6;" parent="1" vertex="1">
          <mxGeometry x="390" y="-100" width="120" height="60" as="geometry" />
        </mxCell>
        <mxCell id="XVUIvvw5tuOI8ro835sy-4" value="&lt;b&gt;crm_sales_Details&lt;/b&gt;" style="rounded=1;whiteSpace=wrap;html=1;fontFamily=Architects Daughter;fontSource=https%3A%2F%2Ffonts.googleapis.com%2Fcss%3Ffamily%3DArchitects%2BDaughter;glass=0;shadow=1;strokeColor=#9673a6;fillColor=#e1d5e7;" parent="1" vertex="1">
          <mxGeometry x="395" y="-10" width="120" height="60" as="geometry" />
        </mxCell>
        <mxCell id="XVUIvvw5tuOI8ro835sy-5" value="&lt;b&gt;crm_prd_info&lt;/b&gt;" style="rounded=1;whiteSpace=wrap;html=1;fontFamily=Architects Daughter;fontSource=https%3A%2F%2Ffonts.googleapis.com%2Fcss%3Ffamily%3DArchitects%2BDaughter;shadow=1;fillColor=#e1d5e7;strokeColor=#9673a6;" parent="1" vertex="1">
          <mxGeometry x="395" y="145" width="125" height="60" as="geometry" />
        </mxCell>
        <mxCell id="XVUIvvw5tuOI8ro835sy-6" value="&lt;b&gt;srp_cust_az12&lt;/b&gt;" style="rounded=1;whiteSpace=wrap;html=1;fontFamily=Architects Daughter;fontSource=https%3A%2F%2Ffonts.googleapis.com%2Fcss%3Ffamily%3DArchitects%2BDaughter;shadow=1;fillColor=#e1d5e7;strokeColor=#9673a6;" parent="1" vertex="1">
          <mxGeometry x="390" y="220" width="120" height="60" as="geometry" />
        </mxCell>
        <mxCell id="XVUIvvw5tuOI8ro835sy-7" value="&lt;b&gt;erp_loc_a101&lt;/b&gt;" style="rounded=1;whiteSpace=wrap;html=1;fontFamily=Architects Daughter;fontSource=https%3A%2F%2Ffonts.googleapis.com%2Fcss%3Ffamily%3DArchitects%2BDaughter;shadow=1;fillColor=#e1d5e7;strokeColor=#9673a6;" parent="1" vertex="1">
          <mxGeometry x="390" y="296" width="120" height="60" as="geometry" />
        </mxCell>
        <mxCell id="XVUIvvw5tuOI8ro835sy-8" value="&lt;b&gt;erp_px_cat_g1v2&lt;/b&gt;" style="rounded=1;whiteSpace=wrap;html=1;fontFamily=Architects Daughter;fontSource=https%3A%2F%2Ffonts.googleapis.com%2Fcss%3Ffamily%3DArchitects%2BDaughter;shadow=1;fillColor=#e1d5e7;strokeColor=#9673a6;" parent="1" vertex="1">
          <mxGeometry x="390" y="380" width="120" height="60" as="geometry" />
        </mxCell>
        <mxCell id="XVUIvvw5tuOI8ro835sy-15" value="" style="line;strokeWidth=1;rotatable=0;dashed=0;labelPosition=right;align=left;verticalAlign=middle;spacingTop=0;spacingLeft=6;points=[];portConstraint=eastwest;" parent="1" vertex="1">
          <mxGeometry x="6" y="203" width="219" height="20" as="geometry" />
        </mxCell>
        <mxCell id="XVUIvvw5tuOI8ro835sy-16" value="" style="endArrow=classic;html=1;rounded=0;entryX=0.02;entryY=0.136;entryDx=0;entryDy=0;entryPerimeter=0;exitX=1.002;exitY=0.156;exitDx=0;exitDy=0;exitPerimeter=0;" parent="1" source="X2y7TpnEj3RSz1fnKNXi-14" target="XVUIvvw5tuOI8ro835sy-1" edge="1">
          <mxGeometry width="50" height="50" relative="1" as="geometry">
            <mxPoint x="240" y="40" as="sourcePoint" />
            <mxPoint x="300" y="50" as="targetPoint" />
          </mxGeometry>
        </mxCell>
        <mxCell id="XVUIvvw5tuOI8ro835sy-17" value="" style="endArrow=classic;html=1;rounded=0;entryX=0;entryY=0.137;entryDx=0;entryDy=0;entryPerimeter=0;exitX=1.02;exitY=0.293;exitDx=0;exitDy=0;exitPerimeter=0;" parent="1" source="X2y7TpnEj3RSz1fnKNXi-14" edge="1">
          <mxGeometry width="50" height="50" relative="1" as="geometry">
            <mxPoint x="290" y="110" as="sourcePoint" />
            <mxPoint x="390" y="100" as="targetPoint" />
          </mxGeometry>
        </mxCell>
        <mxCell id="XVUIvvw5tuOI8ro835sy-18" value="" style="endArrow=classic;html=1;rounded=0;entryX=0;entryY=0.137;entryDx=0;entryDy=0;entryPerimeter=0;exitX=0.957;exitY=0.412;exitDx=0;exitDy=0;exitPerimeter=0;" parent="1" source="X2y7TpnEj3RSz1fnKNXi-14" edge="1">
          <mxGeometry width="50" height="50" relative="1" as="geometry">
            <mxPoint x="280" y="190" as="sourcePoint" />
            <mxPoint x="380" y="180" as="targetPoint" />
          </mxGeometry>
        </mxCell>
        <mxCell id="XVUIvvw5tuOI8ro835sy-19" value="" style="endArrow=classic;html=1;rounded=0;entryX=0;entryY=0.137;entryDx=0;entryDy=0;entryPerimeter=0;exitX=0.998;exitY=0.577;exitDx=0;exitDy=0;exitPerimeter=0;" parent="1" source="X2y7TpnEj3RSz1fnKNXi-14" edge="1">
          <mxGeometry width="50" height="50" relative="1" as="geometry">
            <mxPoint x="270" y="255" as="sourcePoint" />
            <mxPoint x="370" y="245" as="targetPoint" />
          </mxGeometry>
        </mxCell>
        <mxCell id="XVUIvvw5tuOI8ro835sy-20" value="" style="endArrow=classic;html=1;rounded=0;entryX=0;entryY=0.137;entryDx=0;entryDy=0;entryPerimeter=0;exitX=1.002;exitY=0.715;exitDx=0;exitDy=0;exitPerimeter=0;" parent="1" source="X2y7TpnEj3RSz1fnKNXi-14" edge="1">
          <mxGeometry width="50" height="50" relative="1" as="geometry">
            <mxPoint x="250" y="340" as="sourcePoint" />
            <mxPoint x="350" y="330" as="targetPoint" />
          </mxGeometry>
        </mxCell>
        <mxCell id="XVUIvvw5tuOI8ro835sy-21" value="" style="endArrow=classic;html=1;rounded=0;entryX=0;entryY=0.137;entryDx=0;entryDy=0;entryPerimeter=0;exitX=1.002;exitY=0.895;exitDx=0;exitDy=0;exitPerimeter=0;" parent="1" source="X2y7TpnEj3RSz1fnKNXi-14" edge="1">
          <mxGeometry width="50" height="50" relative="1" as="geometry">
            <mxPoint x="250" y="430" as="sourcePoint" />
            <mxPoint x="350" y="420" as="targetPoint" />
          </mxGeometry>
        </mxCell>
      </root>
    </mxGraphModel>
  </diagram>
</mxfile>
